<?xml version="1.0" encoding="utf-8"?>
<!-- Generator: Adobe Illustrator 24.1.3, SVG Export Plug-In . SVG Version: 6.00 Build 0)  -->
<svg version="1.1" id="Layer_1" xmlns="http://www.w3.org/2000/svg" xmlns:xlink="http://www.w3.org/1999/xlink" x="0px" y="0px"
	 viewBox="0 0 1000 966" style="enable-background:new 0 0 1000 966;" xml:space="preserve">
<style type="text/css">
	.st0{fill:#FFFFFF;}
</style>
<rect x="0.5" y="-11.5" width="999" height="989"/>
<path class="st0" d="M756.7,327.65l-24.57-6.19l-59.91-15.1l-378.27-95.31v0c-14.27,56.63,20.07,114.11,76.7,128.38l177.59,44.75
	l256.03,64.51l29.12,7.34l0,0C847.68,399.4,813.34,341.92,756.7,327.65z"/>
<path class="st0" d="M806.45,464.34H541.88H400.47c-2.25,0-4.48,0.09-6.69,0.23c-0.62-0.14-1.26-0.23-1.92-0.23l0,0
	c-53.64,0-97.13,43.49-97.13,97.13v8.62v0v169.29c0,4.76,3.86,8.62,8.62,8.62c53.64,0,97.13-43.49,97.13-97.13v-80.77h237.36h72.67
	h17.16c58.4,0,105.75-47.34,105.75-105.75H806.45z"/>
<path class="st0" d="M388.03,445.06l-93.3-53.87v107.74C310.66,459.63,346.19,447.9,388.03,445.06z"/>
</svg>
