<?xml version="1.0" encoding="utf-8"?>
<!-- Generator: Adobe Illustrator 24.1.3, SVG Export Plug-In . SVG Version: 6.00 Build 0)  -->
<svg version="1.1" id="Layer_1" xmlns="http://www.w3.org/2000/svg" xmlns:xlink="http://www.w3.org/1999/xlink" x="0px" y="0px"
	 viewBox="0 0 966 1000" style="enable-background:new 0 0 966 1000;" xml:space="preserve">
<style type="text/css">
	.st0{fill:#4ACED1;}
	.st1{fill:#FFFFFF;}
	.st2{fill:#13D813;}
</style>
<g>
	<path class="st1" d="M825.08,240.93l-43.15-10.68L676.68,204.2L12.18,39.76v0c-25.07,97.71,35.26,196.88,134.74,221.5l311.97,77.2
		l449.77,111.3l51.16,12.66l0,0C984.89,364.72,924.57,265.55,825.08,240.93z"/>
	<path class="st1" d="M914.6,476.76l-464.76,0l-248.41,0c-3.95,0-7.87,0.16-11.76,0.4c-1.09-0.24-2.21-0.4-3.38-0.4l0,0
		c-94.23,0-170.63,75.03-170.63,167.58l0,14.87v0l0,292.08c0,8.21,6.78,14.87,15.14,14.87c94.23,0,170.63-75.03,170.63-167.58
		l0-139.36l416.96,0l127.66,0h30.14c102.59,0,185.76-81.68,185.76-182.45L914.6,476.76z"/>
	<path class="st1" d="M179.57,443.49L15.66,350.54l0,185.89C43.65,468.63,106.06,448.4,179.57,443.49z"/>
</g>
</svg>
